<svg width="23" height="22" viewBox="0 0 23 22" fill="none" xmlns="http://www.w3.org/2000/svg">
<path d="M8.15537 2.238C7.38557 3.90906 7.1464 5.77591 7.47009 7.58706C7.79378 9.39821 8.66478 11.0667 9.96575 12.3676C11.2667 13.6686 12.9352 14.5396 14.7463 14.8633C16.5575 15.187 18.4243 14.9478 20.0954 14.178C19.1014 18.654 15.1084 22 10.3334 22C4.81037 22 0.333374 17.523 0.333374 12C0.333374 7.225 3.67937 3.232 8.15537 2.238V2.238ZM16.4974 2.291L17.3334 2.5V3.5L16.4974 3.709C16.1458 3.79693 15.8247 3.97875 15.5684 4.23503C15.3121 4.4913 15.1303 4.8124 15.0424 5.164L14.8334 6H13.8334L13.6244 5.164C13.5364 4.8124 13.3546 4.4913 13.0983 4.23503C12.8421 3.97875 12.521 3.79693 12.1694 3.709L11.3334 3.5V2.5L12.1694 2.291C12.5208 2.20291 12.8417 2.02102 13.0978 1.76475C13.3539 1.50849 13.5355 1.18748 13.6234 0.836L13.8334 0H14.8334L15.0424 0.836C15.1303 1.1876 15.3121 1.5087 15.5684 1.76497C15.8247 2.02125 16.1458 2.20307 16.4974 2.291V2.291ZM21.4974 7.291L22.3334 7.5V8.5L21.4974 8.709C21.1458 8.79693 20.8247 8.97875 20.5684 9.23503C20.3121 9.4913 20.1303 9.8124 20.0424 10.164L19.8334 11H18.8334L18.6244 10.164C18.5364 9.8124 18.3546 9.4913 18.0983 9.23503C17.8421 8.97875 17.521 8.79693 17.1694 8.709L16.3334 8.5V7.5L17.1694 7.291C17.521 7.20307 17.8421 7.02125 18.0983 6.76497C18.3546 6.5087 18.5364 6.1876 18.6244 5.836L18.8334 5H19.8334L20.0424 5.836C20.1303 6.1876 20.3121 6.5087 20.5684 6.76497C20.8247 7.02125 21.1458 7.20307 21.4974 7.291Z" fill="#F4F4F4"/>
</svg>
