<svg width="23" height="22" viewBox="0 0 23 22" fill="none" xmlns="http://www.w3.org/2000/svg">
<path d="M11.3334 17C9.74208 17 8.21595 16.3679 7.09073 15.2426C5.96552 14.1174 5.33337 12.5913 5.33337 11C5.33337 9.4087 5.96552 7.88258 7.09073 6.75736C8.21595 5.63214 9.74208 5 11.3334 5C12.9247 5 14.4508 5.63214 15.576 6.75736C16.7012 7.88258 17.3334 9.4087 17.3334 11C17.3334 12.5913 16.7012 14.1174 15.576 15.2426C14.4508 16.3679 12.9247 17 11.3334 17ZM10.3334 0H12.3334V3H10.3334V0ZM10.3334 19H12.3334V22H10.3334V19ZM2.84837 3.929L4.26237 2.515L6.38337 4.636L4.96937 6.05L2.84837 3.93V3.929ZM16.2834 17.364L17.6974 15.95L19.8184 18.071L18.4044 19.485L16.2834 17.364ZM18.4044 2.514L19.8184 3.929L17.6974 6.05L16.2834 4.636L18.4044 2.515V2.514ZM4.96937 15.95L6.38337 17.364L4.26237 19.485L2.84837 18.071L4.96937 15.95V15.95ZM22.3334 10V12H19.3334V10H22.3334ZM3.33337 10V12H0.333374V10H3.33337Z" fill="#282828"/>
</svg>
